<svg xmlns="http://www.w3.org/2000/svg" style="display:none">
  <symbol id="professional_icon" viewBox="0 0 24 24" fill="none" stroke="currentColor" stroke-width="1.5">
    <path stroke-linecap="round" stroke-linejoin="round"
          d="M17.982 18.725A7.488 7.488 0 0 0 12 15.75a7.488 7.488 0 0 0-5.982 2.975m11.963 0a9 9 0 1 0-11.963 0m11.963 0A8.966 8.966 0 0 1 12 21a8.966 8.966 0 0 1-5.982-2.275M15 9.75a3 3 0 1 1-6 0 3 3 0 0 1 6 0Z" />
  </symbol>
  <symbol id="center_icon" viewBox="0 0 24 24" fill="none" stroke="currentColor" stroke-width="1.5">
      <path stroke-linecap="round" stroke-linejoin="round" 
            d="M2.25 21h19.5m-18-18v18m10.5-18v18m6-13.5V21M6.75 6.75h.75m-.75 3h.75m-.75 3h.75m3-6h.75m-.75 3h.75m-.75 3h.75M6.75 21v-3.375c0-.621.504-1.125 1.125-1.125h2.25c.621 0 1.125.504 1.125 1.125V21M3 3h12m-.75 4.5H21m-3.75 3.75h.008v.008h-.008v-.008Zm0 3h.008v.008h-.008v-.008Zm0 3h.008v.008h-.008v-.008Z" />
  </symbol>
  <symbol id="project_icon" viewBox="0 0 24 24" fill="none" stroke="currentColor" stroke-width="1.5">
      <path stroke-linecap="round" stroke-linejoin="round" d="M6.75 2.994v2.25m10.5-2.25v2.25m-14.252 13.5V7.491a2.25 2.25 0 0 1 2.25-2.25h13.5a2.25 2.25 0 0 1 2.25 2.25v11.251m-18 0a2.25 2.25 0 0 0 2.25 2.25h13.5a2.25 2.25 0 0 0 2.25-2.25m-18 0v-7.5a2.25 2.25 0 0 1 2.25-2.25h13.5a2.25 2.25 0 0 1 2.25 2.25v7.5m-6.75-6h2.25m-9 2.25h4.5m.002-2.25h.005v.006H12v-.006Zm-.001 4.5h.006v.006h-.006v-.005Zm-2.25.001h.005v.006H9.75v-.006Zm-2.25 0h.005v.005h-.006v-.005Zm6.75-2.247h.005v.005h-.005v-.005Zm0 2.247h.006v.006h-.006v-.006Zm2.25-2.248h.006V15H16.5v-.005Z" />
  </symbol>
  <symbol id="trash_icon" viewBox="0 0 24 24" fill="none" stroke="currentColor" stroke-width="1.5">
    <path stroke-linecap="round" stroke-linejoin="round" d="m14.74 9-.346 9m-4.788 0L9.26 9m9.968-3.21c.342.052.682.107 1.022.166m-1.022-.165L18.16 19.673a2.25 2.25 0 0 1-2.244 2.077H8.084a2.25 2.25 0 0 1-2.244-2.077L4.772 5.79m14.456 0a48.108 48.108 0 0 0-3.478-.397m-12 .562c.34-.059.68-.114 1.022-.165m0 0a48.11 48.11 0 0 1 3.478-.397m7.5 0v-.916c0-1.18-.91-2.164-2.09-2.201a51.964 51.964 0 0 0-3.32 0c-1.18.037-2.09 1.022-2.09 2.201v.916m7.5 0a48.667 48.667 0 0 0-7.5 0" />
  </symbol>


</svg>
